<?xml version="1.0" encoding="UTF-8"?>
<svg id="Layer_1" xmlns="http://www.w3.org/2000/svg" version="1.1" viewBox="0 0 730 568">
  <!-- Generator: Adobe Illustrator 30.2.1, SVG Export Plug-In . SVG Version: 2.1.1 Build 1)  -->
  <defs>
    <style>
      .st0, .st1, .st2, .st3, .st4, .st5, .st6, .st7 {
        stroke-width: 2px;
      }

      .st0, .st1, .st2, .st3, .st4, .st6 {
        fill: none;
      }

      .st0, .st5 {
        stroke: #f0883e;
      }

      .st1, .st7 {
        stroke: #64a7ff;
      }

      .st8, .st9 {
        fill: #5ab749;
      }

      .st10, .st11, .st12 {
        fill: #f0883e;
      }

      .st13, .st11, .st12, .st14, .st15, .st16, .st17, .st9, .st18, .st19, .st20 {
        isolation: isolate;
      }

      .st13, .st17 {
        font-family: SegoeUI, 'Segoe UI';
        font-size: 12px;
      }

      .st13, .st21, .st18 {
        fill: #f85149;
      }

      .st22, .st17, .st19 {
        fill: #3fb950;
      }

      .st11, .st12, .st14, .st16, .st9, .st18, .st19, .st20 {
        font-family: SegoeUI-Bold, 'Segoe UI';
        font-weight: 700;
      }

      .st11, .st16, .st9, .st18, .st19, .st20 {
        font-size: 16px;
      }

      .st23, .st7, .st20 {
        fill: #64a7ff;
      }

      .st2 {
        stroke: #e78538;
      }

      .st12 {
        font-size: 13px;
      }

      .st14 {
        fill: #e6edf3;
        font-size: 28px;
      }

      .st16, .st24 {
        fill: #e78538;
      }

      .st3 {
        stroke: #3fb950;
      }

      .st4 {
        stroke: #5ab749;
      }

      .st5, .st25 {
        fill: #0d1117;
      }

      .st6 {
        stroke: #f85149;
      }
    </style>
  </defs>
  <rect class="st25" width="730" height="568" rx="12" ry="12"/>
  <g class="st15">
    <g class="st15">
      <text class="st14" transform="translate(202.58 33.33)"><tspan x="0" y="0">Optimization Pipeline</tspan></text>
    </g>
  </g>
  <g class="st15">
    <g class="st15">
      <text class="st20" transform="translate(265.33 89.72)"><tspan x="0" y="0">1. MCTS Select Node</tspan></text>
    </g>
  </g>
  <line class="st7" x1="343.4" y1="97.72" x2="343.4" y2="115.72"/>
  <polygon class="st23" points="337.4 115.72 349.4 115.72 343.4 125.72 337.4 115.72"/>
  <g class="st15">
    <g class="st15">
      <text class="st20" transform="translate(266.98 144.01)"><tspan x="0" y="0">2. Generate Prompt</tspan></text>
    </g>
  </g>
  <line class="st1" x1="343.4" y1="149.72" x2="343.4" y2="167.72"/>
  <polygon class="st23" points="337.4 167.72 349.4 167.72 343.4 177.72 337.4 167.72"/>
  <g class="st15">
    <g class="st15">
      <text class="st11" transform="translate(261.55 251.04)"><tspan x="0" y="0">4. Compile &amp; Validate</tspan></text>
    </g>
  </g>
  <line class="st0" x1="343.04" y1="259.04" x2="343.04" y2="277.04"/>
  <polygon class="st10" points="337.04 277.04 349.04 277.04 343.04 287.04 337.04 277.04"/>
  <g>
    <polygon class="st5" points="343.46 425.36 386.46 451.36 343.46 477.36 300.46 451.36 343.46 425.36"/>
    <g class="st15">
      <g class="st15">
        <text class="st12" transform="translate(311.03 456.36)"><tspan x="0" y="0">Improved?</tspan></text>
      </g>
    </g>
  </g>
  <line class="st3" x1="390.2" y1="453.73" x2="554.2" y2="453.73"/>
  <polygon class="st22" points="554.2 448.73 554.2 458.73 564.2 453.73 554.2 448.73"/>
  <g class="st15">
    <g class="st15">
      <text class="st17" transform="translate(399.2 446.73)"><tspan x="0" y="0">YES</tspan></text>
    </g>
  </g>
  <g class="st15">
    <g class="st15">
      <text class="st19" transform="translate(574.2 458.73)"><tspan x="0" y="0">Speedup Found</tspan></text>
    </g>
  </g>
  <line class="st2" x1="343.04" y1="260.87" x2="343.04" y2="276.87"/>
  <polygon class="st24" points="337.04 276.87 349.04 276.87 343.04 286.87 337.04 276.87"/>
  <g class="st15">
    <g class="st15">
      <text class="st16" transform="translate(260.84 306.87)"><tspan x="0" y="0">5. Profile &amp; Log Result</tspan></text>
    </g>
  </g>
  <g class="st15">
    <g class="st15">
      <text class="st13" transform="translate(271.95 446.73)"><tspan x="0" y="0">NO</tspan></text>
    </g>
  </g>
  <line class="st6" x1="296.72" y1="453.73" x2="175.37" y2="453.73"/>
  <polygon class="st21" points="177.72 458.73 177.72 448.73 167.72 453.73 177.72 458.73"/>
  <g class="st15">
    <text class="st18" transform="translate(70.54 453.73)"><tspan x="0" y="0">Expanded</tspan></text>
    <text class="st18" transform="translate(70.54 472.93)"><tspan x="0" y="0">Search Space</tspan></text>
  </g>
  <line class="st2" x1="343.4" y1="320.16" x2="343.4" y2="336.16"/>
  <polygon class="st24" points="337.4 336.16 349.4 336.16 343.4 346.16 337.4 336.16"/>
  <g class="st15">
    <g class="st15">
      <text class="st20" transform="translate(259.2 366.16)"><tspan x="0" y="0">6. Insert Node into Tree</tspan></text>
    </g>
  </g>
  <line class="st7" x1="343.4" y1="378.2" x2="343.4" y2="394.2"/>
  <polygon class="st23" points="337.4 394.2 349.4 394.2 343.4 404.2 337.4 394.2"/>
  <g class="st15">
    <g class="st15">
      <text class="st9" transform="translate(276.93 195.38)"><tspan x="0" y="0">3. Generate Kernel</tspan></text>
    </g>
  </g>
  <line class="st4" x1="342.64" y1="203.38" x2="342.64" y2="221.38"/>
  <polygon class="st10" points="336.64 221.38 348.64 221.38 342.64 231.38 336.64 221.38"/>
  <line class="st4" x1="342.64" y1="205.21" x2="342.64" y2="221.21"/>
  <polygon class="st8" points="336.64 221.21 348.64 221.21 342.64 231.21 336.64 221.21"/>
</svg>